# xmcd
#
# Track frame offsets:
#   150
#   15182
#   26991
#   43833
#   59208
#   76443
#   92353
#   107899
#   126219
#   141453
#   154855
#   171920
#   186398
#   202300
#   220622
#   236154
#   251574
#   266269
#   280468
#   301700
#   316597
#
# Disc length: 4383 seconds
#
# Revision: 0
# Processed by: cddbd v1.5.1PL0 Copyright (c) Steve Scherf et al.
# Submitted via: Media_Universe 3.0
#
DISCID=34111d15
DTITLE=Martina McBride - The Way That I Am and Wild Angels
DYEAR=1900
DGENRE=Country
TTITLE0=Heart Trouble
TTITLE1=My Baby Loves Me
TTITLE2=That Wasnt Me
TTITLE3=Independance Day
TTITLE4=Where I Used To Have A Heart
TTITLE5=Goin To Work
TTITLE6=She Aint Seen Nothin Yet
TTITLE7=Life #9
TTITLE8=Strangers
TTITLE9=Ashes
TTITLE10=Wild Angels
TTITLE11=Safe In The Arms Of Love
TTITLE12=Phones Are Ringing All Over Town
TTITLE13=A Great Disguise
TTITLE14=Swinging Doors
TTITLE15=All The Things We've Never Done
TTITLE16=Two More Bottles Of Wine
TTITLE17=Cry On The Shoulder Of The Road
TTITLE18=You've Been Driving All The Time
TTITLE19=Born To Give My Love To You
TTITLE20=Beyond The Blue
EXTD=
EXTT0=
EXTT1=
EXTT2=
EXTT3=
EXTT4=
EXTT5=
EXTT6=
EXTT7=
EXTT8=
EXTT9=
EXTT10=
EXTT11=
EXTT12=
EXTT13=
EXTT14=
EXTT15=
EXTT16=
EXTT17=
EXTT18=
EXTT19=
EXTT20=
PLAYORDER=
